<?xml version="1.0" encoding="UTF-8" standalone="no"?>
<!DOCTYPE svg PUBLIC "-//W3C//DTD SVG 1.1//EN" "http://www.w3.org/Graphics/SVG/1.1/DTD/svg11.dtd">
<!-- Created with Vectornator (http://vectornator.io/) -->
<svg height="100%" stroke-miterlimit="10" style="fill-rule:nonzero;clip-rule:evenodd;stroke-linecap:round;stroke-linejoin:round;" version="1.1" viewBox="0 0 815.5 1750.77" width="100%" xml:space="preserve" xmlns="http://www.w3.org/2000/svg" xmlns:vectornator="http://vectornator.io" xmlns:xlink="http://www.w3.org/1999/xlink">
<defs/>
<g id="Untitled" vectornator:layerName="Untitled">
<g opacity="1">
<path d="M813.881 521.454C819.907 763.376 611.202 926.948 409.781 926.303C375.187 926.192 342.362 922.086 311.494 914.522C126.08 869.091 11.2882 698.937 8.19196 520.874C6.15327 340.013 130.114 128.264 409.781 120.123C611.203 119.96 812.214 276.043 813.881 521.454ZM606.151 219.281C659.187 242.673 700.218 291.766 712.227 329.488C686.476 317.849 617.128 321.806 615.148 321.925C614.441 320.274 614.24 241.208 606.151 219.281ZM456.863 167.399C527.911 170.193 563.134 210.538 568.874 243.062C569.941 263.846 568.997 299.039 568.874 319.739C562.022 319.662 496.25 319.752 492.47 319.739C492.707 300.529 493.179 262.037 492.47 243.062C493.019 207.157 475.062 182.571 456.863 167.399ZM672.163 435.351C663.209 435.351 632.744 435.222 615.207 434.526C615.261 423.839 615.648 369.094 615.207 358.849C618.912 358.549 653.73 359.142 671.326 359.142C744.868 364.057 760.839 450.349 760.165 467.47C747.84 457.652 719.34 435.351 672.163 435.351ZM447.713 244.076C447.715 244.1 447.659 314.041 447.483 318.231C445.565 318.331 372.157 318.039 371.108 317.934C371.16 314.188 371.617 257.09 371.064 243.91C370.799 213.923 392.043 178.011 410.173 177.469C429.836 177.523 447.926 212.04 447.713 244.076ZM750.973 521.454C751.022 538.869 722.391 557.64 674.264 557.64C669.222 557.64 615.302 557.64 615.302 557.64C615.302 557.64 615.302 484.829 615.302 480.963C627.871 480.494 662.654 481.438 675.07 480.963C723.797 480.963 751.113 504.149 750.973 521.454ZM568.453 357.41C568.591 359.937 568.181 432.177 568.089 434.087C565.971 434.463 493.359 434.017 491.958 434.087C492.057 431.1 492.289 360.562 492.704 357.41C495.674 357.3 561.138 357.318 568.453 357.41ZM361.811 167.399C353.283 174.873 323.136 198.36 323.748 244.076C323.7 249.806 324.308 241.409 324.308 318.086C317.226 318.086 253.228 318.086 247.904 318.086C247.652 302.942 246.99 262.454 247.904 241.409C249.253 210.34 278.356 167.399 361.811 167.399ZM761.4 574.031C751.902 647.519 689.305 678.137 657.157 678.137C650.991 678.137 622.537 678.373 616.309 677.833C615.833 676.329 615.963 604.406 615.963 601.697C631.79 602.402 659.965 601.932 675.723 601.697C689.102 600.759 737.583 598.381 761.4 574.031ZM370.88 434.087C371.034 434.093 370.86 357.446 370.88 357.41C371.228 357.381 445.806 357.549 447.283 357.41C447.253 358.992 447.283 434.087 447.283 434.087C445.314 434.275 371.115 434.323 370.88 434.087ZM566.26 482.558C566.336 484.524 565.935 554.955 565.827 557.023C564.288 557.566 492.14 556.83 490.831 557.014C490.672 555.926 491.422 483.821 491.649 481.898C493.461 482.099 564.095 482.546 566.26 482.558ZM205.064 220.961C198.037 237.897 202.206 281.93 202.064 317.937C155.152 317.937 116.973 317.937 92.2859 330.841C142.586 264.108 165.362 244.808 205.064 220.961ZM606.572 825.719C609.918 813.462 611.701 807.735 613.677 789.286C613.977 779.637 614.813 745.353 614.377 721.629C655.988 720.388 692.956 720.435 713.373 709.199C709.168 757.147 636.67 818.964 606.572 825.719ZM323.88 357.41C323.88 360.868 324.297 434.412 324.297 434.412L247.772 434.166C247.772 432.376 247.893 365.06 247.893 357.735C255.727 357.735 320.273 357.41 323.88 357.41ZM449.174 481.704C449.174 481.704 449.149 549.147 449.174 558.381C444.056 558.316 392.025 558.623 372.77 558.381C372.77 553.103 372.299 485.004 372.77 481.704C396.609 482.002 443.962 481.704 449.174 481.704ZM566.746 601.235C566.842 603.225 567.216 655.735 566.746 677.912C565.055 678.242 493.154 678.133 490.596 678.145C490.464 673.022 490.2 603.894 490.342 601.235C493.319 601.384 564.369 601.216 566.746 601.235ZM325.796 480.682C325.781 481.666 325.597 542.088 325.796 557.359C318.368 557.383 270.162 557.617 249.393 557.359C249.664 552.184 249.455 481.371 249.455 480.66C264.301 480.138 317.59 480.738 325.796 480.682ZM372.248 600.974C378.889 601.27 438.162 600.47 448.652 600.974C448.298 622.917 448.85 674.861 448.652 677.651C443.33 678.399 376.876 677.977 371.926 678.213C371.599 673.423 372.91 623.627 372.248 600.974ZM567.001 724.946C566.53 745.452 567.429 766.16 566.959 786.666C565.239 798.666 562.957 817.433 546.857 835.595C535.771 848.605 521.959 856.885 512.37 860.977C496.527 866.885 479.888 871.899 462.97 871.882C477.741 847.823 488.675 818.206 490.597 786.286C490.714 768.35 490.465 727.641 490.597 724.946C492.313 725.151 567.001 724.946 567.001 724.946ZM200.553 357.119C201.716 357.549 201.879 433.796 201.879 433.796C201.879 433.796 160.361 433.166 139.626 434.304C102.659 433.22 52.7695 472.312 51.9605 470.81C64.7569 390.001 103.211 365.714 164.286 357.738C166.076 357.433 186.369 357.458 200.553 357.119ZM66.6063 519.048C66.6867 494.379 125.756 481.008 148.701 481.008C164.962 481.008 199.728 481.008 202.16 481.008C202.16 481.008 202.16 555.081 202.16 557.684C185.976 557.684 165.704 557.684 149.709 557.684C125.708 557.684 66.2705 542.57 66.6063 519.048ZM323.552 601.184C324.167 601.614 323.106 654.362 323.082 677.524C314.499 677.849 250.426 676.918 248.053 676.558C247.488 673.364 248.341 608.339 248.568 601.184C253.708 601.024 319.261 601.184 323.552 601.184ZM410.173 874.683C382.549 874.457 372.201 790.383 372.201 784.09C372.323 760.744 372.323 750.94 372.201 724.713C410.06 724.726 416.273 724.726 448.604 724.713C448.726 755.281 448.726 764.048 448.604 785.644C447.565 793.853 437.168 875.129 410.173 874.683ZM322.768 724.713C323.625 725.867 323.16 763.892 323.322 782.636C324.261 816.157 340.656 850.209 358.633 872.115C347.39 872.016 333.475 869.086 315.728 866.261C274.106 862.085 248.893 818.288 247.761 781.338C247.76 763.688 247.759 741.679 247.761 724.443C270.734 724.443 297.755 724.713 322.768 724.713ZM53.3362 568.844C60.9781 573.785 85.406 600.431 148.554 600.431C158.718 601.249 189.445 600.432 202.869 600.431C203.176 603.705 204.208 673.792 203.298 677.108C199.631 675.336 173.69 678.164 162.189 677.469C75.8633 663.77 52.8831 570.908 53.3362 568.844ZM216.147 826.589C147.814 795.458 117.354 747.262 98.727 709.366C112.827 717.117 131.925 724.79 156.58 724.79C176.427 725.022 184.885 724.79 204.159 724.79C204.369 743.144 204.159 773.934 204.159 781.008C205.525 791.227 207.186 808.07 216.147 826.589Z" fill="#191919" fill-rule="evenodd" opacity="1" stroke="none" vectornator:layerName="path"/>
</g>
</g>
</svg>
